<?xml version="1.0" encoding="utf-8"?>
<!-- Generator: Adobe Illustrator 16.0.4, SVG Export Plug-In . SVG Version: 6.00 Build 0)  -->
<!DOCTYPE svg PUBLIC "-//W3C//DTD SVG 1.1//EN" "http://www.w3.org/Graphics/SVG/1.1/DTD/svg11.dtd">
<svg version="1.1" id="Layer_1" xmlns="http://www.w3.org/2000/svg" xmlns:xlink="http://www.w3.org/1999/xlink" x="0px" y="0px"
	 width="138px" height="138.834px" viewBox="0 0 138 138.834" enable-background="new 0 0 138 138.834" xml:space="preserve">
<rect x="41.334" y="2.5" fill="#FF4500" width="3" height="3"/>
<circle fill="none" stroke="#2B2B2B" stroke-miterlimit="10" cx="42.834" cy="96" r="40"/>
<circle fill="none" stroke="#2B2B2B" stroke-miterlimit="10" cx="42.834" cy="116" r="20"/>
<circle opacity="0.5" fill="#00BFFF" cx="42.834" cy="34.708" r="10.854"/>
<circle fill="none" stroke="#2B2B2B" stroke-miterlimit="10" cx="42.834" cy="129.646" r="6.354"/>
<circle opacity="0.5" fill="#00008B" cx="42.834" cy="20.586" r="8.149"/>
<text transform="matrix(1 0 0 1 98.46 8.5)" fill="#2B2B2B" font-family="'AkkuratPro-Regular'" font-size="10">facility</text>
<text transform="matrix(1 0 0 1 98.46 23.4136)" fill="#2B2B2B" font-family="'AkkuratPro-Regular'" font-size="10">winter</text>
<text transform="matrix(1 0 0 1 98.46 38.1011)" fill="#2B2B2B" font-family="'AkkuratPro-Regular'" font-size="10">summer</text>
<text transform="matrix(1 0 0 1 98.46 59.167)"><tspan x="0" y="0" fill="#2B2B2B" font-family="'AkkuratPro-Regular'" font-size="10">1000</tspan><tspan x="0" y="12" fill="#2B2B2B" font-family="'AkkuratPro-Regular'" font-size="10">people</tspan></text>
<text transform="matrix(1 0 0 1 98.46 99.5039)" fill="#2B2B2B" font-family="'AkkuratPro-Regular'" font-size="10">250</text>
<text transform="matrix(1 0 0 1 98.46 126.6255)" fill="#2B2B2B" font-family="'AkkuratPro-Regular'" font-size="10">25</text>
<g>
	<g>
		<line fill="none" stroke="#2B2B2B" stroke-width="0.5" stroke-miterlimit="10" x1="42.834" y1="56" x2="43.834" y2="56"/>
		
			<line fill="none" stroke="#2B2B2B" stroke-width="0.5" stroke-miterlimit="10" stroke-dasharray="1.9523,0.9762" x1="44.81" y1="56" x2="91.178" y2="56"/>
		<line fill="none" stroke="#2B2B2B" stroke-width="0.5" stroke-miterlimit="10" x1="91.667" y1="56" x2="92.667" y2="56"/>
	</g>
</g>
<rect x="81.334" y="94.75" fill="#FFFFFF" width="2.75" height="2.5"/>
<rect x="69.651" y="122.042" fill="#FFFFFF" width="5.63" height="2.5"/>
<g>
	<g>
		<line fill="none" stroke="#2B2B2B" stroke-width="0.5" stroke-miterlimit="10" x1="42.834" y1="96" x2="43.834" y2="96"/>
		
			<line fill="none" stroke="#2B2B2B" stroke-width="0.5" stroke-miterlimit="10" stroke-dasharray="1.9523,0.9762" x1="44.81" y1="96" x2="91.178" y2="96"/>
		<line fill="none" stroke="#2B2B2B" stroke-width="0.5" stroke-miterlimit="10" x1="91.667" y1="96" x2="92.667" y2="96"/>
	</g>
</g>
<g>
	<g>
		
			<line fill="none" stroke="#2B2B2B" stroke-width="0.5" stroke-miterlimit="10" x1="42.834" y1="123.292" x2="43.834" y2="123.292"/>
		
			<line fill="none" stroke="#2B2B2B" stroke-width="0.5" stroke-miterlimit="10" stroke-dasharray="1.9523,0.9762" x1="44.81" y1="123.292" x2="91.178" y2="123.292"/>
		
			<line fill="none" stroke="#2B2B2B" stroke-width="0.5" stroke-miterlimit="10" x1="91.667" y1="123.292" x2="92.667" y2="123.292"/>
	</g>
</g>
</svg>
